<svg xmlns="http://www.w3.org/2000/svg" viewBox="0 0 1357.64 90.05"><defs><style>.cls-1{isolation:isolate;}.cls-2{mix-blend-mode:multiply;opacity:0.1;}.cls-3{fill:#0c0c0c;}.cls-4{fill:#fff;}</style></defs><g class="cls-1"><g id="Layer_2" data-name="Layer 2"><g id="Layer_1-2" data-name="Layer 1"><g class="cls-2"><path class="cls-3" d="M0,29v58H1357.64V29a29,29,0,0,0-29.05-29H29A29,29,0,0,0,0,29ZM80.37,58.51A15.06,15.06,0,1,1,93.82,45.06,15.07,15.07,0,0,1,80.37,58.51Zm66.67,0a15.06,15.06,0,1,1,13.45-13.45A15.07,15.07,0,0,1,147,58.51Zm66.66,0a15.06,15.06,0,1,1,13.45-13.45A15.07,15.07,0,0,1,213.7,58.51Zm66.67,0a15.06,15.06,0,1,1,13.45-13.45A15.07,15.07,0,0,1,280.37,58.51Zm66.66,0a15.06,15.06,0,1,1,13.45-13.45A15.07,15.07,0,0,1,347,58.51Zm66.67,0a15.06,15.06,0,1,1,13.44-13.45A15.06,15.06,0,0,1,413.7,58.51Zm66.66,0a15.06,15.06,0,1,1,13.45-13.45A15.07,15.07,0,0,1,480.36,58.51Zm66.67,0a15.06,15.06,0,1,1,13.44-13.45A15.06,15.06,0,0,1,547,58.51Zm66.66,0a15.06,15.06,0,1,1,13.45-13.45A15.07,15.07,0,0,1,613.69,58.51Zm66.67,0A15.06,15.06,0,1,1,693.8,45.06,15.06,15.06,0,0,1,680.36,58.51Zm66.66,0a15.06,15.06,0,1,1,13.45-13.45A15.07,15.07,0,0,1,747,58.51Zm66.66,0a15.06,15.06,0,1,1,13.45-13.45A15.07,15.07,0,0,1,813.68,58.51Zm66.67,0A15.06,15.06,0,1,1,893.8,45.06,15.07,15.07,0,0,1,880.35,58.51Zm66.66,0a15.06,15.06,0,1,1,13.45-13.45A15.07,15.07,0,0,1,947,58.51Zm66.67,0a15.06,15.06,0,1,1,13.45-13.45A15.07,15.07,0,0,1,1013.68,58.51Zm66.66,0a15.06,15.06,0,1,1,13.45-13.45A15.07,15.07,0,0,1,1080.34,58.51Zm66.67,0a15.06,15.06,0,1,1,13.44-13.45A15.06,15.06,0,0,1,1147,58.51Zm66.66,0a15.06,15.06,0,1,1,13.45-13.45A15.07,15.07,0,0,1,1213.67,58.51Zm66.67,0a15.06,15.06,0,1,1,13.44-13.45A15.06,15.06,0,0,1,1280.34,58.51Z"/></g><path class="cls-4" d="M0,32v58H1357.64V32a29,29,0,0,0-29.05-29H29A29,29,0,0,0,0,32ZM80.37,61.51A15.06,15.06,0,1,1,93.82,48.06,15.07,15.07,0,0,1,80.37,61.51Zm66.67,0a15.06,15.06,0,1,1,13.45-13.45A15.07,15.07,0,0,1,147,61.51Zm66.66,0a15.06,15.06,0,1,1,13.45-13.45A15.07,15.07,0,0,1,213.7,61.51Zm66.67,0a15.06,15.06,0,1,1,13.45-13.45A15.07,15.07,0,0,1,280.37,61.51Zm66.66,0a15.06,15.06,0,1,1,13.45-13.45A15.07,15.07,0,0,1,347,61.51Zm66.67,0a15.06,15.06,0,1,1,13.44-13.45A15.06,15.06,0,0,1,413.7,61.51Zm66.66,0a15.06,15.06,0,1,1,13.45-13.45A15.07,15.07,0,0,1,480.36,61.51Zm66.67,0a15.06,15.06,0,1,1,13.44-13.45A15.06,15.06,0,0,1,547,61.51Zm66.66,0a15.06,15.06,0,1,1,13.45-13.45A15.07,15.07,0,0,1,613.69,61.51Zm66.67,0A15.06,15.06,0,1,1,693.8,48.06,15.06,15.06,0,0,1,680.36,61.51Zm66.66,0a15.06,15.06,0,1,1,13.45-13.45A15.07,15.07,0,0,1,747,61.51Zm66.66,0a15.06,15.06,0,1,1,13.45-13.45A15.07,15.07,0,0,1,813.68,61.51Zm66.67,0A15.06,15.06,0,1,1,893.8,48.06,15.07,15.07,0,0,1,880.35,61.51Zm66.66,0a15.06,15.06,0,1,1,13.45-13.45A15.07,15.07,0,0,1,947,61.51Zm66.67,0a15.06,15.06,0,1,1,13.45-13.45A15.07,15.07,0,0,1,1013.68,61.51Zm66.66,0a15.06,15.06,0,1,1,13.45-13.45A15.07,15.07,0,0,1,1080.34,61.51Zm66.67,0a15.06,15.06,0,1,1,13.44-13.45A15.06,15.06,0,0,1,1147,61.51Zm66.66,0a15.06,15.06,0,1,1,13.45-13.45A15.07,15.07,0,0,1,1213.67,61.51Zm66.67,0a15.06,15.06,0,1,1,13.44-13.45A15.06,15.06,0,0,1,1280.34,61.51Z"/></g></g></g></svg>