<svg xmlns="http://www.w3.org/2000/svg" viewBox="0 0 552.69 420.44"><defs><style>.cls-1{fill:#18aee4;}.cls-2{fill:#ffcc32;}.cls-3{fill:#f37a20;}.cls-4{fill:#8dc540;}</style></defs><g id="Layer_2" data-name="Layer 2"><g id="Layer_4" data-name="Layer 4"><path class="cls-1" d="M234,101c-.31-6.9.51-13.15,5.42-16.93a4.69,4.69,0,0,0,.64-.54c6.72-7.31,8.34-6.88,17.73-8.43,8.39-1.39,16.15,4.65,20,12.86,5.58,9.67,5.94,26.2-1.6,33-6.45,5.8-14.36,7.35-23.55,2.47-6.78-3.59-12.22-9.51-16.77-16.46m295.52,203a115,115,0,0,1,11.71,14.62,2.47,2.47,0,0,1-.11.89,1.08,1.08,0,0,1-.66.46,1.45,1.45,0,0,1-.87,0,62.22,62.22,0,0,1-13.64-7.37,3.87,3.87,0,0,1-1.47-4.48,29.61,29.61,0,0,1,1.86-4c.48-.88,2.39-.82,3.18,0m-164,82.25c.41.57.79,1.17,1.34,2a16.1,16.1,0,0,1,.83,2.73,2.54,2.54,0,0,1-.64,1.55c-.1.15-.67.08-.83-.11a39.25,39.25,0,0,1-3.3-4,2.08,2.08,0,0,1,.24-2.62,1.6,1.6,0,0,1,2.36.45M183.43,10.49a7.22,7.22,0,0,0,1.13,6.75c4,5.33,8,10.74,12.36,15.77,10.5,12.21,21.17,24.22,31.76,36.32,1.38,1.58,2.71,3.23,4.07,4.83,3.11,3.65,3.79,5.35,1.57,8.76a16.88,16.88,0,0,0-1.7,3.1c-3.57,9.06-3,18.68,5.22,28.14,2.78,3.18,5.5,6.53,8.85,8.68,6.12,3.93,9.59,9.67,11.52,16.76.37,1.34.83,2.68,1.24,4,7.19,23.86,16.68,47.09,26.4,70.23,4.93,11.76,9.2,23.67,13.57,35.57,1.95,5.29,3.7,10.63,5.6,15.94,2.37,6.62,4.81,13.23,7.21,19.86.6,1.65,1.18,3.31,1.8,5,3,7.93,5.82,15.88,8.87,23.77,4.44,11.52,8.83,23.06,13.58,34.48,4.61,11.09,9.7,22,14.46,33.05,2.15,5,4.79,9.46,8.77,13A76.11,76.11,0,0,1,371.35,408c2,2.9,4,5.84,6.11,8.65a32.66,32.66,0,0,0,3.6,3.65.82.82,0,0,0,.84.1c.35-.35.9-.87.8-1.29a23.46,23.46,0,0,0-1.51-5c-2.33-4.78-4.9-9.45-7.2-14.24a60.93,60.93,0,0,1-3.07-7.84,5,5,0,0,1,.61-4.6,13.15,13.15,0,0,1,1.65-2c2.12-2,2.21-4.87,1.27-8.06a87.57,87.57,0,0,0-6.22-15.72A95.29,95.29,0,0,1,363,351.2c-4.06-11-10.14-21.09-14.48-31.91-8.2-15.4-14.22-31.64-21.14-47.53-6.06-13.93-11.37-28.16-16.76-42.33-6.16-16.15-13-32.08-18.8-48.34-.83-2.31-2-4.52-3-6.79-3.58-8.08-7.22-16.16-10.72-24.28-1.67-3.89-3.21-7.86-4.59-11.84a37.49,37.49,0,0,1-1.23-6,2,2,0,0,1,2.26-2,15,15,0,0,1,3.49,1.35c4.19,2.68,8.31,5.57,12.5,8.25,3.89,2.49,10.17,9.32,14.39,10.8l.13.09c.11.11.21.25.33.35Q316.09,160.16,327,169a3.89,3.89,0,0,0,1,.56c4.45,3.63,8.77,7.12,9.38,7.64,2.61,2.2,5.3,4.25,8,6.23A259.75,259.75,0,0,1,366,200c5.09,4.59,10.45,8.74,15.73,13s10.72,8.26,15.88,12.75a186.15,186.15,0,0,0,22.72,16.78c14.28,9.08,27.71,20.2,41.93,29.44,1.66,1.07,3.17,2.54,4.8,3.74,5.13,3.82,10.25,7.67,15.43,11.38,5.45,3.9,11.09,7.41,16.43,11.56,6.13,4.77,12,10.05,18,15.11,2.45,3.79,5.78,5.81,9.33,7.48,1.45.68,2.84,1.65,4.27,2.46,4.55,2.59,9.09,5.25,13.68,7.71a58.49,58.49,0,0,0,7,3,1.34,1.34,0,0,0,1.34-.68,2.31,2.31,0,0,0-.12-1.82c-1.82-2.6-3.65-5.2-5.63-7.64-5.32-6.53-10.76-12.94-15.53-20a30.75,30.75,0,0,0-4.13-4.68,262.32,262.32,0,0,0-27.34-23.11,288.85,288.85,0,0,1-22.65-19.14c-10.7-9.7-21.63-18.95-32.91-27.56-14-10.66-28-21.21-41.9-32-14.47-11.15-29.07-22-44-32-3.87-2.6-7.67-5.38-11.5-8.1-4.91-3.5-9.76-7.15-14.73-10.53-12.42-8.43-24.9-16.73-37.34-25.13-2.75-1.86-5.61-3.56-7.86-6.4a6.48,6.48,0,0,1-1.7-3.76c-.07-2.33.08-4.62-.05-7a47.41,47.41,0,0,0-4.39-18.06c-4.86-10.17-13-15.9-22.14-15.5-1.15.05-2.29.19-3.43.32s-2.25.33-3.4.45c-6.7.69-7.57.11-11.68-7.66-.5-.94-1-1.91-1.44-2.85-5.81-11-11.75-21.87-18.94-32C215,23,210.67,16.09,206,9.43a62.91,62.91,0,0,0-6-7.25,5.93,5.93,0,0,0-5.95-2,14.56,14.56,0,0,0-10.6,10.3"/><path class="cls-2" d="M253.43,85.85l-2.66,1.45c-2.87,1.56-4.45,4.26-4.62,8.1a53.36,53.36,0,0,0,.06,6.92c.68,8,9.52,14.8,15.64,12.94,5.41-1.64,8.82-5.59,10.56-11.51a11.72,11.72,0,0,0,0-5.88,20.67,20.67,0,0,0-5.51-10c-3.17-3.22-6.55-4.47-10.07-3.38a29.29,29.29,0,0,0-3.36,1.36m-2.5-3.44a30.51,30.51,0,0,1,5.56-2c4.92-1,9.37,1.2,13.05,6.3A42.63,42.63,0,0,1,275,97a14.84,14.84,0,0,1,.24,10.7c-2.06,5.23-5.29,9.09-10.24,10.94-6.49,2.42-11.52.54-17.27-6.08a20.08,20.08,0,0,1-5-11.4c-.12-1.35-.2-2.69-.25-4-.37-9.62-.11-10.13,8.36-14.72"/><path class="cls-3" d="M251.48,101.75c.38-2.4,1.66-3.54,2.74-4.82,3-3.59,7.85-2.87,11.56,1.85a7.09,7.09,0,0,1,1.35,3.8c.08,4.32-3.4,7.58-7.2,6.85a8.93,8.93,0,0,1-3.4-1.59,17.33,17.33,0,0,1-2.83-3c-.85-1-1.59-2.2-2.22-3.08"/><path class="cls-4" d="M216.66,200l-.49.53c-.14.19-.26.4-.41.59a2.83,2.83,0,0,0,.4,3.85,13.38,13.38,0,0,0,5.11,2.49c3.44,1,6.89,1.94,10.37,2.75a3.9,3.9,0,0,0,2.74-.41c2.55-1.76,5.17-3.47,7.14-5.93a4.29,4.29,0,0,0,1-4,50.92,50.92,0,0,0-7.29-15.47,1.1,1.1,0,0,0-.54-.45c-.66-.13-1.44-.43-2-.2a6.91,6.91,0,0,0-2.25,1.68c-4.61,4.84-9.18,9.72-13.77,14.58m-46.61-22.64a124.46,124.46,0,0,1-13.76-11.57,61.53,61.53,0,0,0-5.6-4.53c-4.52-3.56-9.07-7.1-13.58-10.69a48.3,48.3,0,0,1-4.91-4.22,121.65,121.65,0,0,0-12.57-10.77,80.51,80.51,0,0,1-10.25-9,41.27,41.27,0,0,0-4.31-3.82c-3.32-2.77-6.66-5.48-9.71-8.58a64.09,64.09,0,0,0-6.08-5,173.08,173.08,0,0,1-15.38-13A110,110,0,0,0,62.76,87C59.31,84.33,6,48.69,3.16,45.44A24.14,24.14,0,0,1,1,42.59,4.91,4.91,0,0,1,.7,37.14a31.76,31.76,0,0,1,4.57-6.42C9.08,27,12.45,23,15.9,19a15.81,15.81,0,0,1,5.66-4.36c2.53-1.08,3.8-1.15,5.75,1,3.51,4,57.28,40.47,60.87,44.35a46,46,0,0,0,5.2,5c5.46,4.31,11,8.5,16.56,12.72a15,15,0,0,0,2.39,1.59A98.76,98.76,0,0,1,127.49,89a30.65,30.65,0,0,0,3.69,2.23,54.22,54.22,0,0,1,13.15,10,18.3,18.3,0,0,0,1.55,1.5c11.73,9.54,22.58,20.13,34.83,29a34,34,0,0,1,3.9,3.18c4.82,4.71,10.24,8.7,15.4,13,2.76,2.31,5.42,4.74,8.18,7,4.06,3.39,8,6.87,12.28,10,5.06,3.74,9.21,8.41,13.71,12.72a15.82,15.82,0,0,1,3,4c2.14,4,4.21,8.09,6.13,12.22,2.22,4.79,4.24,9.67,6.37,14.5a12.18,12.18,0,0,1,1.41,4.79,3.16,3.16,0,0,1-1.82,2.84,8.91,8.91,0,0,1-2.8.54,26.73,26.73,0,0,1-5-.72q-8.38-2.1-16.73-4.37a41.05,41.05,0,0,1-15.36-7.63,57.58,57.58,0,0,0-10.24-6.68,36.63,36.63,0,0,1-4.27-2.67c-4.72-3.29-9.47-6.51-14.48-9.4-3.71-2.14-6.93-5.13-10.37-7.74"/></g></g></svg>